<svg width="186" height="34" viewBox="0 0 186 34" fill="none" xmlns="http://www.w3.org/2000/svg">
<path d="M29.68 4.8L19.96 33H9.92L0.16 4.8H8.56L14.96 25.16L21.32 4.8H29.68ZM129.16 4.8V33H121.32V21.68H111.76V33H103.92V4.8H111.76V15.4H121.32V4.8H129.16Z" fill="#865DFF"/>
<path d="M36.0828 8.48C34.6961 8.48 33.5761 8.10667 32.7228 7.36C31.8961 6.58667 31.4828 5.62667 31.4828 4.48C31.4828 3.30667 31.8961 2.33333 32.7228 1.56C33.5761 0.786665 34.6961 0.399998 36.0828 0.399998C37.4428 0.399998 38.5361 0.786665 39.3628 1.56C40.2161 2.33333 40.6428 3.30667 40.6428 4.48C40.6428 5.62667 40.2161 6.58667 39.3628 7.36C38.5361 8.10667 37.4428 8.48 36.0828 8.48ZM39.9628 10.56V33H32.1228V10.56H39.9628ZM52.2675 13.68C52.8808 12.6133 53.7475 11.7867 54.8675 11.2C55.9875 10.5867 57.3075 10.28 58.8275 10.28C60.6142 10.28 62.2275 10.7467 63.6675 11.68C65.1342 12.6133 66.2808 13.9467 67.1075 15.68C67.9608 17.4133 68.3875 19.44 68.3875 21.76C68.3875 24.08 67.9608 26.12 67.1075 27.88C66.2808 29.6133 65.1342 30.9467 63.6675 31.88C62.2275 32.8133 60.6142 33.28 58.8275 33.28C57.3075 33.28 55.9875 32.9867 54.8675 32.4C53.7475 31.7867 52.8808 30.9467 52.2675 29.88V33H44.4275V3.4H52.2675V13.68ZM60.4275 21.76C60.4275 20.2933 60.0275 19.16 59.2275 18.36C58.4542 17.5333 57.4942 17.12 56.3475 17.12C55.2008 17.12 54.2275 17.5333 53.4275 18.36C52.6542 19.1867 52.2675 20.32 52.2675 21.76C52.2675 23.2267 52.6542 24.3733 53.4275 25.2C54.2275 26.0267 55.2008 26.44 56.3475 26.44C57.4942 26.44 58.4542 26.0267 59.2275 25.2C60.0275 24.3467 60.4275 23.2 60.4275 21.76ZM93.055 21.52C93.055 22.1333 93.015 22.7467 92.935 23.36H78.095C78.175 24.5867 78.5083 25.5067 79.095 26.12C79.7083 26.7067 80.4817 27 81.415 27C82.7217 27 83.655 26.4133 84.215 25.24H92.575C92.2283 26.7867 91.5483 28.1733 90.535 29.4C89.5483 30.6 88.295 31.5467 86.775 32.24C85.255 32.9333 83.575 33.28 81.735 33.28C79.5217 33.28 77.5483 32.8133 75.815 31.88C74.1083 30.9467 72.7617 29.6133 71.775 27.88C70.815 26.1467 70.335 24.1067 70.335 21.76C70.335 19.4133 70.815 17.3867 71.775 15.68C72.735 13.9467 74.0683 12.6133 75.775 11.68C77.5083 10.7467 79.495 10.28 81.735 10.28C83.9483 10.28 85.9083 10.7333 87.615 11.64C89.3217 12.5467 90.655 13.8533 91.615 15.56C92.575 17.24 93.055 19.2267 93.055 21.52ZM85.055 19.56C85.055 18.6 84.735 17.8533 84.095 17.32C83.455 16.76 82.655 16.48 81.695 16.48C80.735 16.48 79.9483 16.7467 79.335 17.28C78.7217 17.7867 78.3217 18.5467 78.135 19.56H85.055ZM156.606 10.56V33H148.726V29.8C148.06 30.8133 147.14 31.64 145.966 32.28C144.793 32.8933 143.446 33.2 141.926 33.2C139.313 33.2 137.246 32.3467 135.726 30.64C134.233 28.9067 133.486 26.56 133.486 23.6V10.56H141.286V22.6C141.286 23.88 141.62 24.8933 142.286 25.64C142.98 26.36 143.886 26.72 145.006 26.72C146.153 26.72 147.06 26.36 147.726 25.64C148.393 24.8933 148.726 23.88 148.726 22.6V10.56H156.606ZM168.908 13.68C169.521 12.6133 170.388 11.7867 171.508 11.2C172.628 10.5867 173.948 10.28 175.468 10.28C177.255 10.28 178.868 10.7467 180.308 11.68C181.775 12.6133 182.921 13.9467 183.748 15.68C184.601 17.4133 185.028 19.44 185.028 21.76C185.028 24.08 184.601 26.12 183.748 27.88C182.921 29.6133 181.775 30.9467 180.308 31.88C178.868 32.8133 177.255 33.28 175.468 33.28C173.948 33.28 172.628 32.9867 171.508 32.4C170.388 31.7867 169.521 30.9467 168.908 29.88V33H161.068V3.4H168.908V13.68ZM177.068 21.76C177.068 20.2933 176.668 19.16 175.868 18.36C175.095 17.5333 174.135 17.12 172.988 17.12C171.841 17.12 170.868 17.5333 170.068 18.36C169.295 19.1867 168.908 20.32 168.908 21.76C168.908 23.2267 169.295 24.3733 170.068 25.2C170.868 26.0267 171.841 26.44 172.988 26.44C174.135 26.44 175.095 26.0267 175.868 25.2C176.668 24.3467 177.068 23.2 177.068 21.76Z" fill="#E3F5FF"/>
</svg>
