<svg width="60" height="60" viewBox="0 0 60 60" fill="none" xmlns="http://www.w3.org/2000/svg">
<g filter="url(#filter0_d_61_7)">
<path d="M44.5 10.5V4C44.5 2.89543 43.6046 2 42.5 2H8C6.89543 2 6 2.89543 6 4V48.5C6 49.6046 6.89543 50.5 8 50.5H42.5C43.6046 50.5 44.5 49.6046 44.5 48.5V40.5" stroke="#865DFF" stroke-width="3"/>
<path d="M55.0607 27.0607C55.6464 26.4749 55.6464 25.5251 55.0607 24.9393L45.5147 15.3934C44.9289 14.8076 43.9792 14.8076 43.3934 15.3934C42.8076 15.9792 42.8076 16.9289 43.3934 17.5147L51.8787 26L43.3934 34.4853C42.8076 35.0711 42.8076 36.0208 43.3934 36.6066C43.9792 37.1924 44.9289 37.1924 45.5147 36.6066L55.0607 27.0607ZM19 27.5L54 27.5L54 24.5L19 24.5L19 27.5Z" fill="#865DFF"/>
</g>
<defs>
<filter id="filter0_d_61_7" x="0.5" y="0.5" width="59" height="59.5" filterUnits="userSpaceOnUse" color-interpolation-filters="sRGB">
<feFlood flood-opacity="0" result="BackgroundImageFix"/>
<feColorMatrix in="SourceAlpha" type="matrix" values="0 0 0 0 0 0 0 0 0 0 0 0 0 0 0 0 0 0 127 0" result="hardAlpha"/>
<feOffset dy="4"/>
<feGaussianBlur stdDeviation="2"/>
<feComposite in2="hardAlpha" operator="out"/>
<feColorMatrix type="matrix" values="0 0 0 0 0 0 0 0 0 0 0 0 0 0 0 0 0 0 0.25 0"/>
<feBlend mode="normal" in2="BackgroundImageFix" result="effect1_dropShadow_61_7"/>
<feBlend mode="normal" in="SourceGraphic" in2="effect1_dropShadow_61_7" result="shape"/>
</filter>
</defs>
</svg>
